<svg xml:space="preserve" style="max-height: 500px" viewBox="121.88951999999999 402.51887999999997 1221.72984 748.34496" y="0px" x="0px" xmlns:xlink="http://www.w3.org/1999/xlink" xmlns="http://www.w3.org/2000/svg" id="Layer_1" version="1.1" width="1221.72984" height="748.34496">
<style type="text/css">
	.st0{fill:#E52521;}
	.st1{fill:#FAC30A;}
	.st2{fill:#0788C8;}
	.st3{fill:#D61380;}
</style>
<path d="M1130.02,932.28c-1.55,3.87-7.36,6.52-11.08,7.66c-3.99,1.23-10-0.67-7.44-5.94c1.52-3.12,5.51-5.8,8.69-6.96&#10;&#9;C1123.79,925.73,1132.41,926.33,1130.02,932.28z"/>
<path d="M640.98,1032.72c-8.97,8.83-18.27,17.31-28.25,24.82c-2.7,2.03-5.49,4.12-8.39,6.11&#10;&#9;c4.66,0.25,9.92,0.72,15.17,0.92c5.49-4.06,10.78-8.49,15.83-13.05c3.51-3.18,6.89-6.48,10.2-9.86&#10;&#9;C644.35,1038.75,642.77,1035.74,640.98,1032.72z" class="st0"/>
<path d="M1323.78,1004.4c-0.73-4.57-6.92-0.69-8.67,0.63c-7.99,5.98-15.11,13.23-22.82,19.55c-22.8,18.65-49.63,38.65-77.89,47.86&#10;&#9;c-14.73,4.8-33.1,2.62-38.8-14.42c-3.65-10.94,9.24-19.62,16.15-26.27c14.31-13.79,28.6-27.58,42.75-41.56&#10;&#9;c6.58-6.51,15.58-11.41,16.33-21.35c-11.14,0.34-20.08,11.48-27.64,18.85c-10.65,10.39-21.79,20.13-32.66,30.25&#10;&#9;c-6.29,5.84-11.82,12.51-18.84,17.47c3.16-7.5,3.97-15.95,5.84-23.87c1.72-7.28,4.66-14.17,6.66-21.35&#10;&#9;c1.24-4.47,1.42-10.94-4.93-10.94c-4.88,0-7.68,5.2-10.45,8.43c-6.97,8.06-14.71,16.22-22.35,23.65&#10;&#9;c-19.15,18.58-41.15,34.74-63.94,48.52c-9.99,6.02-20.79,13.46-32.67,14.51c-3.28-25.91,14.82-51.85,28.5-72.86&#10;&#9;c4.02-6.17,8.89-11.61,13.13-17.58c1.55-2.19,3.92-5.38,2.22-8.13c-2.21-3.58-7.3-1.6-9.94,0.16c-6.95,4.66-12.06,12.78-17.17,19.27&#10;&#9;c-18.19,23.07-42.18,43.57-65.74,61.07c-6.74,5.01-18.53,15.46-27.58,14.74c-10.09-0.82-3.42-15.61-1.28-20.54&#10;&#9;c6.46-14.82,15.98-28.19,23.07-42.71c2.41-4.94,6.28-13.07,3.04-18.41c-6.47-10.68-24.21-0.3-31.17,4.46&#10;&#9;c-16.86,11.52-30.86,25.96-45.22,40.33c-7.26,7.27-14.2,15.43-22.61,21.36c11.45-18.55,25.13-35.67,34.86-55.28&#10;&#9;c3.33-6.7,8.45-17.43,4.05-24.86c-6.12-10.3-22.42-3.21-30.11,0.68c-24.9,12.62-44.22,35.38-62.8,55.58&#10;&#9;c7.69-13.88,15.91-27.51,23.47-41.45c1.98-3.66,8.2-13.15,1.47-15.5c-3.57-1.26-6.27,1.69-8.18,4.27&#10;&#9;c-4.68,6.29-8.19,13.5-12.6,20.02c-15.29,22.64-48.82,35.06-73.26,45.22c0.35-17.45,6.11-37.97,12.85-54.02&#10;&#9;c2.35-5.58,11.8-16.24,9.91-22.32c-1.53-4.93-7.17-3.38-10.2-1.14c-7.84,5.76-14.48,14.08-21.36,20.95&#10;&#9;c-22.87,22.87-45.03,47.04-70.34,67.26c-6.35,5.06-12.96,10.11-20.1,13.99c-2.42,1.31-5.71,3.43-8.61,2.9&#10;&#9;c-3.06-0.55-3.66-3.67-3.51-6.29c0.39-6.5,3.24-14.1,5.66-20.09c7.63-18.82,18.53-36.38,25.78-55.27c2.91-7.6,5.54-17.26-3.05-22.06&#10;&#9;c-12.29-6.87-29.85-2.61-41.39,3.61c-12.82,6.89-24.73,16.12-35.46,26.64c-11.19,10.94-21.1,23.27-29.44,35.77&#10;&#9;c-5.16,7.73-12.42,18.73-14.18,29.34c-0.6,3.68-0.55,7.31,0.48,10.74c1.63,5.48,7,6.41,12.02,6.38c11.36-0.1,21.12-6.77,30.15-12.98&#10;&#9;c1.44-0.99,2.86-2,4.27-3.05c-5.25-0.2-10.5-0.67-15.17-0.92c-6.32,4.33-13.13,8.12-20.51,9.44c0.07-3.32,0.55-6.51,1.33-9.61&#10;&#9;c2.24-8.74,6.98-16.65,12.06-24.31c7.54-11.35,16.13-21.88,25.69-31.48c7-7.03,14.5-13.57,22.48-19.55&#10;&#9;c8.18-6.14,17.03-12.49,27.63-12.98c2.7-0.13,6.86-0.62,9.11,1.24c2.97,2.45,1.44,7.14,0.09,10.01&#10;&#9;c-3.76,7.98-10.66,15.12-16.75,21.35c-8.09,8.29-16.14,16.77-24.48,24.96c1.79,3.02,3.36,6.03,4.55,8.93&#10;&#9;c8.05-8.23,15.66-16.87,23.71-25.09c-5.92,14.2-11.8,27.47-14.82,42.71c-1.23,6.15-2.61,14.61,2.65,19.44&#10;&#9;c9.68,8.91,27.71-2.64,36.04-8.41c19.56-13.55,36-30.72,52.76-47.47c9.56-9.56,21.34-19.26,27.64-31.4&#10;&#9;c-0.98,12.63-6.03,24.99-7.48,37.68c-0.72,6.24-0.91,16.1-5.48,20.86c-2.93,3.04-7.35,4.67-10.91,6.84&#10;&#9;c-8.68,5.29-17.73,10.57-25.11,17.63c-3.99,3.82-8.89,8.93-8.25,14.95c1.68,15.75,25.12,9.78,33.36,4.03&#10;&#9;c7.59-5.31,15.07-13.14,18.95-21.6c2.63-5.69,2.93-13.7,7.76-18.04c5.18-4.65,13.57-6.82,19.76-9.9&#10;&#9;c13.86-6.93,27.54-14.24,41.45-21.05c-5.78,10.97-11.3,22.15-17.88,32.66c-4.42,7.05-10.16,13.16-12.27,21.35&#10;&#9;c7.81,3.51,11.72-1.7,16.63-7.54c5.37-6.38,10.88-12.6,16.38-18.84c14.2-16.1,30.12-31.15,46.12-45.43&#10;&#9;c11.85-10.59,25.41-22.74,41.45-26.17c-0.51,9.62-5.96,18.28-10.81,26.38c-8.11,13.54-17.02,26.61-25.06,40.19&#10;&#9;c-3.69,6.24-12.7,19.85-7.87,27.23c2.17,3.33,6.56,2.96,9.78,1.55c6.68-2.95,12.55-9.91,17.63-14.96&#10;&#9;c13.68-13.62,27.25-27.25,41.45-40.31c10.01-9.21,20.8-19.28,33.92-23.75c-6.37,18.8-20.08,34.02-26.77,52.76&#10;&#9;c-2.45,6.88-5.37,16.62-2.45,23.8c4.34,10.69,20.95,8.19,29.22,4.66c24.42-10.42,41.94-31.63,61.55-48.56&#10;&#9;c-2.97,7.11-6.51,13.96-8.76,21.35c-3.57,11.79-5.81,32.25,11.27,33.63c7.54,0.62,16.01-3.46,22.61-6.76&#10;&#9;c26.15-13.07,51.24-32.67,72.86-52.2c6.54-5.93,12.17-12.88,18.83-18.63c-1.01,7.95-3.11,15.85-3.67,23.87&#10;&#9;c-0.34,5.07,1.23,11.65-1.22,16.3c-4.32,8.22-15.83,15.63-22.75,21.73c-13.47,11.87-26.5,24.36-38.9,37.34&#10;&#9;c-6.47,6.77-14.17,14.46-18.88,22.61c-1.61,2.77-3.74,8.78,0.54,10.48c2.96,1.15,5.77-1.23,7.71-3.13&#10;&#9;c5.19-5.04,9.73-10.79,14.57-16.14c11.85-13.1,24.98-25.2,37.47-37.68c7.38-7.38,14.51-16.5,23.87-21.35&#10;&#9;c3.6,20.22,23.67,25.85,41.45,25.07c14.54-0.64,28.09-8.26,40.19-15.75c16.65-10.32,32.44-21.18,47.73-33.44&#10;&#9;c8.28-6.64,16.41-13.53,23.86-21.1C1319.62,1011.78,1324.38,1008.06,1323.78,1004.4z M1053.62,1016.56h2.52v2.51h-2.52V1016.56z&#10;&#9; M670.08,1014.46c0.08-0.07,1.39-0.14,0.84,0.41C670.84,1014.95,669.52,1015.03,670.08,1014.46z M754.21,1074.34&#10;&#9;c-6.78,10.05-16.89,18.82-29.69,16.32c7.11-13.73,22.09-21.06,33.92-30.15C760.18,1065.59,757.05,1070.11,754.21,1074.34z&#10;&#9; M894.51,1060.09c-0.08,0.08-1.39,0.15-0.84-0.41C893.74,1059.61,895.06,1059.54,894.51,1060.09z"/>
<path d="M537.49,884.96c26.08,37.9,52.37,75.68,78.71,113.41c-11.19,10.94-21.1,23.27-29.44,35.77&#10;&#9;c-5.16,7.73-12.42,18.73-14.18,29.34h-70.61c-13.97,0-31.47,2.7-42.63-7.61c-9.8-9.12-14.9-24.46-20.79-36.24&#10;&#9;c-14.63-29.34-26.78-59.94-37.77-90.82c-35.99-101.16-56.69-209.8-6.55-310.06c13.25-26.44,30.88-49.67,50.05-72.04&#10;&#9;c17.85-20.83,38.93-38.74,60.83-55.18c10.39-7.83,21.64-17.57,34.45-21.05c31.22-8.42,58.34,41.09,69.66,63.71&#10;&#9;c37.39,74.75,26.37,170.43-26.81,234.89c-14.94,18.1-32.57,33.92-52.24,46.7c-8.11,5.29-22.24,10.55-21.49,22.32&#10;&#9;C509.68,853.98,528.81,872.37,537.49,884.96z" class="st1"/>
<path d="M641.9,1061.59c-5.9,2.93-14.14,3.29-22.4,2.97c-5.25-0.2-10.5-0.67-15.17-0.92c-1.87-0.1-3.63-0.17-5.27-0.17&#10;&#9;h-13.9c2.24-8.74,6.98-16.65,12.06-24.31c7.54-11.35,16.13-21.88,25.69-31.48c4.62,5.91,12.41,15.47,18.07,25.04&#10;&#9;c1.79,3.02,3.36,6.03,4.55,8.93C649.09,1050.27,649.32,1057.91,641.9,1061.59z" class="st1"/>
<path d="M358.82,1032.15c-1.16,9.21,0.16,21.64-8.52,27.62c-7.36,5.07-18.42,3.66-26.84,3.7H179.39&#10;&#9;c-10.62,0-27.28,2.98-36.58-3.23c-13.4-8.93-7.27-42.31-7.27-56.28v-285c0-10.65-3.6-30.76,7.27-37.36&#10;&#9;c6.76-4.13,16.76-1.28,24.05-0.22c20.2,2.98,40.56,8.77,59.51,16.29c102.82,40.87,120.2,153.49,132.86,249.93&#10;&#9;C362.86,975.22,362.2,1004.53,358.82,1032.15z" class="st2"/>
<path d="M451.65,480.94c-24.96,40.5-53.56,77.95-90.61,108.18c-46.95,38.27-105.36,60.95-165.99,60.95&#10;&#9;c-14.09,0-40.06,4.92-52.24-3.23c-12.21-8.14-7.27-34.33-7.27-46.88V468.41c0-11.87-5.39-41.78,5.01-50.02&#10;&#9;c5.26-4.17,13.81-3.19,20.04-3.23h46.98c62.64,0,125.28-0.31,187.91,0c17.91,0.09,60.88-1,71.34,16.88&#10;&#9;C475.04,446.14,458.82,469.32,451.65,480.94z" class="st3"/>
</svg>